# xmcd
#
# Track frame offsets:
#	300
#	23802
#	41708
#	59148
#	74140
#	91688
#	105991
#	125464
#	143054
#	161700
#	178041
#	195962
#	212970
#	230774
#	249459
#
# Disc length: 3584 seconds
#
# Revision: 1
# Processed by: cddbd v1.5.2PL0 Copyright (c) Steve Scherf et al.
# Submitted via: audiograbber 1.83.01
#
DISCID=dc0dfc0f
DTITLE=Sunfly - SFKK41
DYEAR=2010
DGENRE=
TTITLE0=Timbaland, Katy Perry  - If We Ever Meet Again
TTITLE1=Lady Gaga, Beyonce - Telephone
TTITLE2=Justin Bieber - One Time
TTITLE3=Gabrielle Cilmi  - On A Mission
TTITLE4=Jay Sean, Sean Paul  - Do You Remember 
TTITLE5=Kesha  - Blah Blah Blah
TTITLE6=Nickelback  - Never Be Alone
TTITLE7=Mumford And Sons - The Cave
TTITLE8=Powderfinger  - Burn Your Name
TTITLE9=Cascada - Fever
TTITLE10=Gloriana  - Wild At Heart
TTITLE11=Troy Cassar Daley - I Love This Place
TTITLE12=The McClymonts - Wrapped Up Good
TTITLE13=Keith Urban - Til Summer Comes Around
TTITLE14=Taylor Swif - Today Was A Fairytale
EXTD=
EXTT0=
EXTT1=
EXTT2=
EXTT3=
EXTT4=
EXTT5=
EXTT6=
EXTT7=
EXTT8=
EXTT9=
EXTT10=
EXTT11=
EXTT12=
EXTT13=
EXTT14=
PLAYORDER=
